STARTFONT 2.1
COMMENT
COMMENT Converted from OpenType font "VCR_OSD_MONO.ttf" by "otf2bdf 3.0".
COMMENT
FONT -FreeType-VCR OSD Mono-Medium-R-Normal--16-160-72-72-P-74-ISO10646-1
SIZE 16 72 72
FONTBOUNDINGBOX 9 15 0 0
STARTPROPERTIES 19
FOUNDRY "FreeType"
FAMILY_NAME "VCR OSD Mono"
WEIGHT_NAME "Medium"
SLANT "R"
SETWIDTH_NAME "Normal"
ADD_STYLE_NAME ""
PIXEL_SIZE 16
POINT_SIZE 160
RESOLUTION_X 72
RESOLUTION_Y 72
SPACING "P"
AVERAGE_WIDTH 74
CHARSET_REGISTRY "ISO10646"
CHARSET_ENCODING "1"
FONT_ASCENT 14
FONT_DESCENT 0
COPYRIGHT "-FreeType-VCR OSD Mono-Medium-R-Normal--16-160-72-72-P-74-ISO10646-1"
_OTF_FONTFILE "VCR_OSD_MONO.ttf"
_OTF_PSNAME "VCROSDMono"
ENDPROPERTIES
CHARS 207
STARTCHAR 0000
ENCODING 0
SWIDTH 0 0
DWIDTH 0 0
BBX 0 0 0 0
BITMAP
ENDCHAR
STARTCHAR 001D
ENCODING 29
SWIDTH 0 0
DWIDTH 0 0
BBX 0 0 0 0
BITMAP
ENDCHAR
STARTCHAR 0020
ENCODING 32
SWIDTH 562 0
DWIDTH 9 0
BBX 0 0 0 0
BITMAP
ENDCHAR
STARTCHAR 0021
ENCODING 33
SWIDTH 562 0
DWIDTH 9 0
BBX 2 12 3 1
BITMAP
C0
C0
C0
C0
C0
C0
C0
C0
00
00
C0
C0
ENDCHAR
STARTCHAR 0022
ENCODING 34
SWIDTH 562 0
DWIDTH 9 0
BBX 6 3 2 9
BITMAP
CC
CC
CC
ENDCHAR
STARTCHAR 0023
ENCODING 35
SWIDTH 562 0
DWIDTH 9 0
BBX 9 11 0 2
BITMAP
0400
3780
3780
FC00
FC00
3400
3F80
FC00
F400
3400
3000
ENDCHAR
STARTCHAR 0024
ENCODING 36
SWIDTH 562 0
DWIDTH 9 0
BBX 8 12 1 1
BITMAP
18
7C
7E
DF
DB
FC
7F
1B
DB
7E
7C
18
ENDCHAR
STARTCHAR 0025
ENCODING 37
SWIDTH 562 0
DWIDTH 9 0
BBX 8 12 1 1
BITMAP
63
F3
F3
F6
6C
7C
38
36
6F
CF
CF
C6
ENDCHAR
STARTCHAR 0026
ENCODING 38
SWIDTH 562 0
DWIDTH 9 0
BBX 8 14 1 1
BITMAP
10
38
6C
6C
6C
28
28
70
F0
DB
CF
EE
7F
3B
ENDCHAR
STARTCHAR 0027
ENCODING 39
SWIDTH 562 0
DWIDTH 9 0
BBX 2 3 3 9
BITMAP
C0
C0
C0
ENDCHAR
STARTCHAR 0028
ENCODING 40
SWIDTH 562 0
DWIDTH 9 0
BBX 4 13 2 1
BITMAP
20
60
C0
C0
C0
C0
C0
C0
C0
C0
40
60
30
ENDCHAR
STARTCHAR 0029
ENCODING 41
SWIDTH 562 0
DWIDTH 9 0
BBX 4 13 3 1
BITMAP
C0
E0
30
30
30
30
30
30
30
30
60
C0
80
ENDCHAR
STARTCHAR 002A
ENCODING 42
SWIDTH 562 0
DWIDTH 9 0
BBX 7 8 1 6
BITMAP
18
9A
FE
7C
7C
DE
9A
18
ENDCHAR
STARTCHAR 002B
ENCODING 43
SWIDTH 562 0
DWIDTH 9 0
BBX 8 8 1 3
BITMAP
18
18
18
FF
FF
18
18
18
ENDCHAR
STARTCHAR 002C
ENCODING 44
SWIDTH 562 0
DWIDTH 9 0
BBX 4 4 2 1
BITMAP
30
30
60
C0
ENDCHAR
STARTCHAR 002D
ENCODING 45
SWIDTH 562 0
DWIDTH 9 0
BBX 6 2 2 6
BITMAP
FC
FC
ENDCHAR
STARTCHAR 002E
ENCODING 46
SWIDTH 562 0
DWIDTH 9 0
BBX 2 2 3 1
BITMAP
C0
C0
ENDCHAR
STARTCHAR 002F
ENCODING 47
SWIDTH 562 0
DWIDTH 9 0
BBX 8 12 1 1
BITMAP
03
03
03
06
0C
1C
38
30
60
C0
C0
C0
ENDCHAR
STARTCHAR 0030
ENCODING 48
SWIDTH 562 0
DWIDTH 9 0
BBX 8 12 1 1
BITMAP
3C
7E
C3
C7
CF
DF
FB
F3
E3
C3
7E
3C
ENDCHAR
STARTCHAR 0031
ENCODING 49
SWIDTH 562 0
DWIDTH 9 0
BBX 5 12 2 1
BITMAP
60
60
E0
E0
60
60
60
60
60
60
F8
F8
ENDCHAR
STARTCHAR 0032
ENCODING 50
SWIDTH 562 0
DWIDTH 9 0
BBX 8 12 1 1
BITMAP
3C
7E
C3
C3
03
3E
7C
C0
C0
C0
FF
FF
ENDCHAR
STARTCHAR 0033
ENCODING 51
SWIDTH 562 0
DWIDTH 9 0
BBX 8 12 1 1
BITMAP
7C
7E
C7
C3
03
1E
1E
07
C3
C3
7E
7C
ENDCHAR
STARTCHAR 0034
ENCODING 52
SWIDTH 562 0
DWIDTH 9 0
BBX 8 12 0 1
BITMAP
06
0E
1E
36
36
76
C6
FF
FF
06
06
06
ENDCHAR
STARTCHAR 0035
ENCODING 53
SWIDTH 562 0
DWIDTH 9 0
BBX 8 12 1 1
BITMAP
FF
FF
C0
FC
FE
03
03
03
C3
C3
7E
3C
ENDCHAR
STARTCHAR 0036
ENCODING 54
SWIDTH 562 0
DWIDTH 9 0
BBX 8 12 1 1
BITMAP
3C
7E
C3
C3
C0
FC
FE
C3
C3
C3
7E
3C
ENDCHAR
STARTCHAR 0037
ENCODING 55
SWIDTH 562 0
DWIDTH 9 0
BBX 8 12 1 1
BITMAP
FF
FF
03
07
06
0C
18
18
18
18
18
18
ENDCHAR
STARTCHAR 0038
ENCODING 56
SWIDTH 562 0
DWIDTH 9 0
BBX 8 12 1 1
BITMAP
3C
7E
C3
C3
C3
7E
7E
C3
C3
C3
7E
3C
ENDCHAR
STARTCHAR 0039
ENCODING 57
SWIDTH 562 0
DWIDTH 9 0
BBX 8 12 1 1
BITMAP
3C
7E
C3
C3
C3
7F
3F
03
C3
C3
7E
3C
ENDCHAR
STARTCHAR 003A
ENCODING 58
SWIDTH 562 0
DWIDTH 9 0
BBX 2 9 3 3
BITMAP
C0
C0
00
00
00
00
00
C0
C0
ENDCHAR
STARTCHAR 003B
ENCODING 59
SWIDTH 562 0
DWIDTH 9 0
BBX 3 9 2 1
BITMAP
60
00
00
00
00
00
60
60
80
ENDCHAR
STARTCHAR 003C
ENCODING 60
SWIDTH 562 0
DWIDTH 9 0
BBX 7 13 2 1
BITMAP
06
0E
1C
38
30
C0
C0
C0
60
38
3C
0E
06
ENDCHAR
STARTCHAR 003D
ENCODING 61
SWIDTH 562 0
DWIDTH 9 0
BBX 8 5 1 4
BITMAP
FF
FF
00
FF
FF
ENDCHAR
STARTCHAR 003E
ENCODING 62
SWIDTH 562 0
DWIDTH 9 0
BBX 7 13 2 1
BITMAP
C0
C0
60
30
38
0E
0E
0E
1C
30
70
C0
C0
ENDCHAR
STARTCHAR 003F
ENCODING 63
SWIDTH 562 0
DWIDTH 9 0
BBX 8 12 1 1
BITMAP
7C
7E
C7
C3
07
06
0C
18
18
00
18
18
ENDCHAR
STARTCHAR 0040
ENCODING 64
SWIDTH 562 0
DWIDTH 9 0
BBX 8 10 1 1
BITMAP
7E
83
B1
E9
E9
EB
BE
80
46
7C
ENDCHAR
STARTCHAR 0041
ENCODING 65
SWIDTH 562 0
DWIDTH 9 0
BBX 8 12 1 1
BITMAP
18
3C
3C
66
C3
C3
C3
FF
FF
C3
C3
C3
ENDCHAR
STARTCHAR 0042
ENCODING 66
SWIDTH 562 0
DWIDTH 9 0
BBX 8 12 1 1
BITMAP
FC
FE
C3
C3
C3
FE
FE
C3
C3
C3
FE
FC
ENDCHAR
STARTCHAR 0043
ENCODING 67
SWIDTH 562 0
DWIDTH 9 0
BBX 8 12 1 1
BITMAP
3C
7E
C3
C3
C0
C0
C0
C0
C0
C3
FF
3C
ENDCHAR
STARTCHAR 0044
ENCODING 68
SWIDTH 562 0
DWIDTH 9 0
BBX 8 12 1 1
BITMAP
FC
FE
C3
C3
C3
C3
C3
C3
C3
C3
FE
FC
ENDCHAR
STARTCHAR 0045
ENCODING 69
SWIDTH 562 0
DWIDTH 9 0
BBX 8 12 1 1
BITMAP
FF
FF
C0
C0
C0
FE
FE
C0
C0
C0
FF
FF
ENDCHAR
STARTCHAR 0046
ENCODING 70
SWIDTH 562 0
DWIDTH 9 0
BBX 8 12 1 1
BITMAP
FF
FF
C0
C0
C0
FE
FE
C0
C0
C0
C0
C0
ENDCHAR
STARTCHAR 0047
ENCODING 71
SWIDTH 562 0
DWIDTH 9 0
BBX 8 12 1 1
BITMAP
3C
7E
C3
C3
C0
CF
CF
C3
C3
C3
7E
3C
ENDCHAR
STARTCHAR 0048
ENCODING 72
SWIDTH 562 0
DWIDTH 9 0
BBX 8 12 1 1
BITMAP
C3
C3
C3
C3
C3
FF
FF
C3
C3
C3
C3
C3
ENDCHAR
STARTCHAR 0049
ENCODING 73
SWIDTH 562 0
DWIDTH 9 0
BBX 5 12 2 1
BITMAP
F8
F8
60
60
60
60
60
60
60
60
F8
F8
ENDCHAR
STARTCHAR 004A
ENCODING 74
SWIDTH 562 0
DWIDTH 9 0
BBX 8 12 1 1
BITMAP
1F
1F
0C
0C
0C
0C
0C
0C
CC
CC
78
70
ENDCHAR
STARTCHAR 004B
ENCODING 75
SWIDTH 562 0
DWIDTH 9 0
BBX 8 12 1 1
BITMAP
C3
C3
C6
CC
DC
F8
F0
F8
CC
CE
C3
C3
ENDCHAR
STARTCHAR 004C
ENCODING 76
SWIDTH 562 0
DWIDTH 9 0
BBX 8 12 1 1
BITMAP
C0
C0
C0
C0
C0
C0
C0
C0
C0
C0
FF
FF
ENDCHAR
STARTCHAR 004D
ENCODING 77
SWIDTH 562 0
DWIDTH 9 0
BBX 8 12 1 1
BITMAP
C3
C3
C7
E7
FF
FB
DB
C3
C3
C3
C3
C3
ENDCHAR
STARTCHAR 004E
ENCODING 78
SWIDTH 562 0
DWIDTH 9 0
BBX 8 12 1 1
BITMAP
C3
C3
C3
E3
F3
FB
DF
CF
C7
C3
C3
C3
ENDCHAR
STARTCHAR 004F
ENCODING 79
SWIDTH 562 0
DWIDTH 9 0
BBX 8 12 1 1
BITMAP
3C
7E
C3
C3
C3
C3
C3
C3
C3
C3
7E
3C
ENDCHAR
STARTCHAR 0050
ENCODING 80
SWIDTH 562 0
DWIDTH 9 0
BBX 8 12 1 1
BITMAP
FC
FE
C3
C3
C3
FE
FC
C0
C0
C0
C0
C0
ENDCHAR
STARTCHAR 0051
ENCODING 81
SWIDTH 562 0
DWIDTH 9 0
BBX 8 12 1 1
BITMAP
3C
7E
C3
C3
C3
C3
C3
DB
DF
CF
7F
3B
ENDCHAR
STARTCHAR 0052
ENCODING 82
SWIDTH 562 0
DWIDTH 9 0
BBX 8 12 1 1
BITMAP
FC
FE
C3
C3
C3
FE
FC
F8
CC
C6
C3
C3
ENDCHAR
STARTCHAR 0053
ENCODING 83
SWIDTH 562 0
DWIDTH 9 0
BBX 8 12 1 1
BITMAP
3C
7E
C3
C3
C0
7C
3E
03
C3
C3
7E
3C
ENDCHAR
STARTCHAR 0054
ENCODING 84
SWIDTH 562 0
DWIDTH 9 0
BBX 8 12 1 1
BITMAP
FF
FF
18
18
18
18
18
18
18
18
18
18
ENDCHAR
STARTCHAR 0055
ENCODING 85
SWIDTH 562 0
DWIDTH 9 0
BBX 8 12 1 1
BITMAP
C3
C3
C3
C3
C3
C3
C3
C3
C3
C3
7E
3C
ENDCHAR
STARTCHAR 0056
ENCODING 86
SWIDTH 562 0
DWIDTH 9 0
BBX 8 12 1 1
BITMAP
C3
C3
C3
C3
C3
C3
C3
C3
66
7E
3C
18
ENDCHAR
STARTCHAR 0057
ENCODING 87
SWIDTH 562 0
DWIDTH 9 0
BBX 8 12 1 1
BITMAP
C3
C3
C3
C3
C3
DB
DB
DB
DB
FF
7E
24
ENDCHAR
STARTCHAR 0058
ENCODING 88
SWIDTH 562 0
DWIDTH 9 0
BBX 8 12 1 1
BITMAP
C3
C3
C3
46
6E
3C
38
3C
6E
C7
C3
C3
ENDCHAR
STARTCHAR 0059
ENCODING 89
SWIDTH 562 0
DWIDTH 9 0
BBX 8 12 1 1
BITMAP
C3
C3
C3
C3
C7
66
3C
38
18
18
18
18
ENDCHAR
STARTCHAR 005A
ENCODING 90
SWIDTH 562 0
DWIDTH 9 0
BBX 8 12 1 1
BITMAP
FF
FF
03
06
0C
1C
38
30
60
C0
FF
FF
ENDCHAR
STARTCHAR 005B
ENCODING 91
SWIDTH 562 0
DWIDTH 9 0
BBX 5 14 3 1
BITMAP
F8
F8
C0
C0
C0
C0
C0
C0
C0
C0
C0
C0
F8
F8
ENDCHAR
STARTCHAR 005C
ENCODING 92
SWIDTH 562 0
DWIDTH 9 0
BBX 8 12 1 1
BITMAP
C0
C0
C0
60
30
38
1C
0C
06
03
03
03
ENDCHAR
STARTCHAR 005D
ENCODING 93
SWIDTH 562 0
DWIDTH 9 0
BBX 5 14 2 1
BITMAP
F8
F8
18
18
18
18
18
18
18
18
18
18
F8
F8
ENDCHAR
STARTCHAR 005E
ENCODING 94
SWIDTH 562 0
DWIDTH 9 0
BBX 8 4 1 8
BITMAP
38
7C
6E
C7
ENDCHAR
STARTCHAR 005F
ENCODING 95
SWIDTH 562 0
DWIDTH 9 0
BBX 9 2 0 0
BITMAP
FF80
FF80
ENDCHAR
STARTCHAR 0060
ENCODING 96
SWIDTH 562 0
DWIDTH 9 0
BBX 4 3 2 10
BITMAP
E0
60
10
ENDCHAR
STARTCHAR 0061
ENCODING 97
SWIDTH 562 0
DWIDTH 9 0
BBX 8 10 1 1
BITMAP
3C
3E
03
3F
7F
C3
C3
C3
7F
3F
ENDCHAR
STARTCHAR 0062
ENCODING 98
SWIDTH 562 0
DWIDTH 9 0
BBX 8 12 1 1
BITMAP
C0
C0
C0
FC
FE
F7
C3
C3
E3
E2
FC
DC
ENDCHAR
STARTCHAR 0063
ENCODING 99
SWIDTH 562 0
DWIDTH 9 0
BBX 8 9 1 1
BITMAP
7E
FF
C3
C0
C0
C3
C3
7E
3C
ENDCHAR
STARTCHAR 0064
ENCODING 100
SWIDTH 562 0
DWIDTH 9 0
BBX 8 12 1 1
BITMAP
03
03
03
3F
7F
EF
C3
C3
C7
47
3F
3B
ENDCHAR
STARTCHAR 0065
ENCODING 101
SWIDTH 562 0
DWIDTH 9 0
BBX 8 9 1 1
BITMAP
7E
FF
C3
FF
FE
C0
C3
7E
3C
ENDCHAR
STARTCHAR 0066
ENCODING 102
SWIDTH 562 0
DWIDTH 9 0
BBX 6 12 2 1
BITMAP
1C
3C
30
FC
FC
30
30
30
30
30
30
30
ENDCHAR
STARTCHAR 0067
ENCODING 103
SWIDTH 562 0
DWIDTH 9 0
BBX 8 10 1 1
BITMAP
7C
7E
C7
C7
7F
7B
03
47
7E
7C
ENDCHAR
STARTCHAR 0068
ENCODING 104
SWIDTH 562 0
DWIDTH 9 0
BBX 8 12 1 1
BITMAP
C0
C0
C0
FC
FE
F7
C3
C3
C3
C3
C3
C3
ENDCHAR
STARTCHAR 0069
ENCODING 105
SWIDTH 562 0
DWIDTH 9 0
BBX 5 11 2 1
BITMAP
30
30
00
F0
F0
30
30
30
30
18
08
ENDCHAR
STARTCHAR 006A
ENCODING 106
SWIDTH 562 0
DWIDTH 9 0
BBX 5 13 2 1
BITMAP
18
18
00
00
78
78
18
18
18
18
38
F0
E0
ENDCHAR
STARTCHAR 006B
ENCODING 107
SWIDTH 562 0
DWIDTH 9 0
BBX 8 12 1 1
BITMAP
C0
C0
C0
C3
C7
C6
DC
F8
EC
EE
C3
C3
ENDCHAR
STARTCHAR 006C
ENCODING 108
SWIDTH 562 0
DWIDTH 9 0
BBX 2 12 4 1
BITMAP
C0
C0
C0
C0
C0
C0
C0
C0
C0
C0
C0
C0
ENDCHAR
STARTCHAR 006D
ENCODING 109
SWIDTH 562 0
DWIDTH 9 0
BBX 8 9 1 1
BITMAP
FE
FE
DB
DB
DB
DB
DB
DB
DB
ENDCHAR
STARTCHAR 006E
ENCODING 110
SWIDTH 562 0
DWIDTH 9 0
BBX 8 9 1 1
BITMAP
FE
FE
C3
C3
C3
C3
C3
C3
C3
ENDCHAR
STARTCHAR 006F
ENCODING 111
SWIDTH 562 0
DWIDTH 9 0
BBX 8 9 1 1
BITMAP
7E
FF
C3
C3
C3
C3
C3
7E
3C
ENDCHAR
STARTCHAR 0070
ENCODING 112
SWIDTH 562 0
DWIDTH 9 0
BBX 8 10 1 1
BITMAP
FC
FE
E3
C3
C3
E3
FE
FC
C0
C0
ENDCHAR
STARTCHAR 0071
ENCODING 113
SWIDTH 562 0
DWIDTH 9 0
BBX 8 10 1 1
BITMAP
3F
7F
C7
C3
C3
C7
7F
3B
03
03
ENDCHAR
STARTCHAR 0072
ENCODING 114
SWIDTH 562 0
DWIDTH 9 0
BBX 8 9 1 1
BITMAP
FE
FF
F3
C0
C0
C0
C0
C0
C0
ENDCHAR
STARTCHAR 0073
ENCODING 115
SWIDTH 562 0
DWIDTH 9 0
BBX 8 9 1 1
BITMAP
7E
FF
C3
78
3E
83
83
7E
7E
ENDCHAR
STARTCHAR 0074
ENCODING 116
SWIDTH 562 0
DWIDTH 9 0
BBX 5 12 2 1
BITMAP
60
60
60
F8
F8
60
60
60
60
70
38
18
ENDCHAR
STARTCHAR 0075
ENCODING 117
SWIDTH 562 0
DWIDTH 9 0
BBX 8 9 1 1
BITMAP
C3
C3
C3
C3
C3
C3
C3
FF
3C
ENDCHAR
STARTCHAR 0076
ENCODING 118
SWIDTH 562 0
DWIDTH 9 0
BBX 8 9 1 1
BITMAP
C3
C3
C3
C3
C3
E7
7E
3C
18
ENDCHAR
STARTCHAR 0077
ENCODING 119
SWIDTH 562 0
DWIDTH 9 0
BBX 8 9 1 1
BITMAP
C3
C3
C3
DB
DB
DB
DB
FF
24
ENDCHAR
STARTCHAR 0078
ENCODING 120
SWIDTH 562 0
DWIDTH 9 0
BBX 8 9 1 1
BITMAP
C3
E7
7E
3C
18
3C
24
C3
C3
ENDCHAR
STARTCHAR 0079
ENCODING 121
SWIDTH 562 0
DWIDTH 9 0
BBX 8 10 1 1
BITMAP
C3
C3
C3
C7
CF
7F
3B
03
3E
3C
ENDCHAR
STARTCHAR 007A
ENCODING 122
SWIDTH 562 0
DWIDTH 9 0
BBX 8 9 1 1
BITMAP
FF
FF
07
0C
1C
38
70
FF
FF
ENDCHAR
STARTCHAR 007B
ENCODING 123
SWIDTH 562 0
DWIDTH 9 0
BBX 5 14 2 1
BITMAP
18
18
78
60
60
60
C0
C0
60
60
60
78
18
18
ENDCHAR
STARTCHAR 007C
ENCODING 124
SWIDTH 562 0
DWIDTH 9 0
BBX 2 14 4 1
BITMAP
C0
C0
C0
C0
C0
C0
C0
C0
C0
C0
C0
C0
C0
C0
ENDCHAR
STARTCHAR 007D
ENCODING 125
SWIDTH 562 0
DWIDTH 9 0
BBX 5 14 2 1
BITMAP
C0
C0
E0
60
60
60
18
18
60
60
60
E0
C0
C0
ENDCHAR
STARTCHAR 007E
ENCODING 126
SWIDTH 562 0
DWIDTH 9 0
BBX 8 4 1 5
BITMAP
31
7B
DE
8C
ENDCHAR
STARTCHAR 00A0
ENCODING 160
SWIDTH 562 0
DWIDTH 9 0
BBX 0 0 0 0
BITMAP
ENDCHAR
STARTCHAR 00A1
ENCODING 161
SWIDTH 562 0
DWIDTH 9 0
BBX 2 12 5 1
BITMAP
C0
C0
00
00
C0
C0
C0
C0
C0
C0
C0
C0
ENDCHAR
STARTCHAR 00A2
ENCODING 162
SWIDTH 562 0
DWIDTH 9 0
BBX 8 12 1 1
BITMAP
18
18
3C
DF
DF
D8
D8
DB
7E
7E
18
18
ENDCHAR
STARTCHAR 00A3
ENCODING 163
SWIDTH 562 0
DWIDTH 9 0
BBX 8 14 1 1
BITMAP
1C
3E
77
63
60
FC
FC
60
60
60
60
40
FF
FF
ENDCHAR
STARTCHAR 00A5
ENCODING 165
SWIDTH 562 0
DWIDTH 9 0
BBX 6 12 2 1
BITMAP
C4
C4
C4
6C
6C
38
10
FC
10
FC
10
10
ENDCHAR
STARTCHAR 00A6
ENCODING 166
SWIDTH 562 0
DWIDTH 9 0
BBX 2 13 4 1
BITMAP
C0
C0
C0
C0
C0
C0
00
C0
C0
C0
C0
C0
C0
ENDCHAR
STARTCHAR 00A8
ENCODING 168
SWIDTH 562 0
DWIDTH 9 0
BBX 5 2 2 11
BITMAP
D8
D8
ENDCHAR
STARTCHAR 00A9
ENCODING 169
SWIDTH 562 0
DWIDTH 9 0
BBX 8 9 1 2
BITMAP
7E
DB
B1
A1
A1
B1
DB
46
7C
ENDCHAR
STARTCHAR 00AA
ENCODING 170
SWIDTH 562 0
DWIDTH 9 0
BBX 5 9 2 3
BITMAP
78
C8
78
C8
88
70
00
F8
F8
ENDCHAR
STARTCHAR 00AB
ENCODING 171
SWIDTH 562 0
DWIDTH 9 0
BBX 8 8 1 2
BITMAP
11
33
44
CC
44
22
33
11
ENDCHAR
STARTCHAR 00AD
ENCODING 173
SWIDTH 562 0
DWIDTH 9 0
BBX 6 2 2 6
BITMAP
FC
FC
ENDCHAR
STARTCHAR 00AE
ENCODING 174
SWIDTH 562 0
DWIDTH 9 0
BBX 8 9 1 4
BITMAP
7E
42
FB
A5
A5
B5
E7
42
7E
ENDCHAR
STARTCHAR 00B0
ENCODING 176
SWIDTH 562 0
DWIDTH 9 0
BBX 6 7 1 6
BITMAP
30
78
CC
CC
CC
78
30
ENDCHAR
STARTCHAR 00B2
ENCODING 178
SWIDTH 562 0
DWIDTH 9 0
BBX 4 5 2 8
BITMAP
F0
30
60
C0
F0
ENDCHAR
STARTCHAR 00B3
ENCODING 179
SWIDTH 562 0
DWIDTH 9 0
BBX 4 5 3 8
BITMAP
F0
30
70
B0
E0
ENDCHAR
STARTCHAR 00B4
ENCODING 180
SWIDTH 562 0
DWIDTH 9 0
BBX 4 3 3 10
BITMAP
30
60
C0
ENDCHAR
STARTCHAR 00B9
ENCODING 185
SWIDTH 562 0
DWIDTH 9 0
BBX 3 5 3 8
BITMAP
E0
60
60
60
E0
ENDCHAR
STARTCHAR 00BA
ENCODING 186
SWIDTH 562 0
DWIDTH 9 0
BBX 6 9 2 3
BITMAP
30
78
CC
CC
CC
78
30
FC
FC
ENDCHAR
STARTCHAR 00BB
ENCODING 187
SWIDTH 562 0
DWIDTH 9 0
BBX 8 8 1 2
BITMAP
88
CC
22
33
22
44
CC
88
ENDCHAR
STARTCHAR 00BC
ENCODING 188
SWIDTH 562 0
DWIDTH 9 0
BBX 8 14 1 1
BITMAP
62
E2
62
66
64
6C
F8
10
12
36
6E
4F
C2
82
ENDCHAR
STARTCHAR 00BD
ENCODING 189
SWIDTH 562 0
DWIDTH 9 0
BBX 8 14 1 1
BITMAP
60
E2
62
66
64
F8
08
10
16
3D
66
4C
CC
8F
ENDCHAR
STARTCHAR 00BE
ENCODING 190
SWIDTH 562 0
DWIDTH 9 0
BBX 9 13 0 1
BITMAP
F980
1900
3300
1A00
DE00
2C00
0800
0B00
1F00
3D00
2F80
6100
4100
ENDCHAR
STARTCHAR 00BF
ENCODING 191
SWIDTH 562 0
DWIDTH 9 0
BBX 8 12 1 1
BITMAP
18
18
00
18
38
30
60
C0
C3
C3
7E
3C
ENDCHAR
STARTCHAR 00C0
ENCODING 192
SWIDTH 562 0
DWIDTH 9 0
BBX 8 13 1 1
BITMAP
30
3C
00
18
3C
3C
E7
C3
C3
FF
FF
C3
C3
ENDCHAR
STARTCHAR 00C1
ENCODING 193
SWIDTH 562 0
DWIDTH 9 0
BBX 8 13 1 1
BITMAP
0C
3C
00
18
3C
3C
E7
C3
C3
FF
FF
C3
C3
ENDCHAR
STARTCHAR 00C2
ENCODING 194
SWIDTH 562 0
DWIDTH 9 0
BBX 8 14 1 1
BITMAP
18
18
24
00
18
3C
3C
E7
C3
C3
FF
FF
C3
C3
ENDCHAR
STARTCHAR 00C3
ENCODING 195
SWIDTH 562 0
DWIDTH 9 0
BBX 8 14 1 1
BITMAP
30
3C
0C
00
18
3C
3C
E7
C3
C3
FF
FF
C3
C3
ENDCHAR
STARTCHAR 00C4
ENCODING 196
SWIDTH 562 0
DWIDTH 9 0
BBX 8 14 1 1
BITMAP
2C
2C
00
00
10
3C
3C
EF
C3
C3
FF
FF
C3
C3
ENDCHAR
STARTCHAR 00C5
ENCODING 197
SWIDTH 562 0
DWIDTH 9 0
BBX 8 13 1 2
BITMAP
24
24
18
18
3C
3C
E7
C3
C3
FF
FF
C3
C3
ENDCHAR
STARTCHAR 00C6
ENCODING 198
SWIDTH 562 0
DWIDTH 9 0
BBX 8 13 1 1
BITMAP
0F
1F
3C
3C
6C
CF
CF
CC
FC
FC
CC
CF
CF
ENDCHAR
STARTCHAR 00C7
ENCODING 199
SWIDTH 562 0
DWIDTH 9 0
BBX 8 12 1 1
BITMAP
3C
7E
C3
C3
C0
C0
C3
C3
7E
3C
3C
30
ENDCHAR
STARTCHAR 00C8
ENCODING 200
SWIDTH 562 0
DWIDTH 9 0
BBX 8 13 1 1
BITMAP
30
3C
00
FF
FF
C0
C0
FE
FE
C0
C0
FF
FF
ENDCHAR
STARTCHAR 00C9
ENCODING 201
SWIDTH 562 0
DWIDTH 9 0
BBX 8 13 1 1
BITMAP
0E
3C
00
FF
FF
C0
C0
FE
FE
C0
C0
FF
FF
ENDCHAR
STARTCHAR 00CA
ENCODING 202
SWIDTH 562 0
DWIDTH 9 0
BBX 8 14 1 1
BITMAP
18
18
26
00
FF
FF
C0
C0
FE
FE
C0
C0
FF
FF
ENDCHAR
STARTCHAR 00CB
ENCODING 203
SWIDTH 562 0
DWIDTH 9 0
BBX 8 14 1 1
BITMAP
2C
2C
00
00
FF
FF
C0
C0
FC
FC
C0
C0
FF
FF
ENDCHAR
STARTCHAR 00CC
ENCODING 204
SWIDTH 562 0
DWIDTH 9 0
BBX 5 13 2 1
BITMAP
C0
70
00
F8
F8
60
60
60
60
60
60
F8
F8
ENDCHAR
STARTCHAR 00CD
ENCODING 205
SWIDTH 562 0
DWIDTH 9 0
BBX 5 13 2 1
BITMAP
38
70
00
F8
F8
60
60
60
60
60
60
F8
F8
ENDCHAR
STARTCHAR 00CE
ENCODING 206
SWIDTH 562 0
DWIDTH 9 0
BBX 5 14 2 1
BITMAP
60
60
98
00
F8
F8
60
60
60
60
60
60
F8
F8
ENDCHAR
STARTCHAR 00CF
ENCODING 207
SWIDTH 562 0
DWIDTH 9 0
BBX 5 14 2 1
BITMAP
D8
D8
00
00
F8
F8
20
20
20
20
20
20
F8
F8
ENDCHAR
STARTCHAR 00D0
ENCODING 208
SWIDTH 562 0
DWIDTH 9 0
BBX 8 12 1 1
BITMAP
7C
7E
63
63
63
F3
F3
63
63
63
7E
7C
ENDCHAR
STARTCHAR 00D1
ENCODING 209
SWIDTH 562 0
DWIDTH 9 0
BBX 8 14 1 1
BITMAP
30
3C
0C
00
C3
C3
E3
F3
FB
DF
CF
C7
C3
C3
ENDCHAR
STARTCHAR 00D2
ENCODING 210
SWIDTH 562 0
DWIDTH 9 0
BBX 8 13 1 1
BITMAP
30
3C
00
3C
7E
C3
C3
C3
C3
C3
C3
7E
3C
ENDCHAR
STARTCHAR 00D3
ENCODING 211
SWIDTH 562 0
DWIDTH 9 0
BBX 8 13 1 1
BITMAP
0C
3C
00
3C
7E
C3
C3
C3
C3
C3
C3
7E
3C
ENDCHAR
STARTCHAR 00D4
ENCODING 212
SWIDTH 562 0
DWIDTH 9 0
BBX 8 14 1 1
BITMAP
18
18
24
00
3C
7E
C3
C3
C3
C3
C3
C3
7E
3C
ENDCHAR
STARTCHAR 00D5
ENCODING 213
SWIDTH 562 0
DWIDTH 9 0
BBX 8 14 1 1
BITMAP
30
3C
0C
00
3C
7E
C3
C3
C3
C3
C3
C3
7E
3C
ENDCHAR
STARTCHAR 00D6
ENCODING 214
SWIDTH 562 0
DWIDTH 9 0
BBX 8 14 1 1
BITMAP
2C
2C
00
00
3C
7E
C7
C3
C3
C3
C3
C3
7E
3C
ENDCHAR
STARTCHAR 00D8
ENCODING 216
SWIDTH 562 0
DWIDTH 9 0
BBX 8 12 1 1
BITMAP
3F
7F
C6
C7
CF
DB
DB
F3
E3
E3
FF
FC
ENDCHAR
STARTCHAR 00D9
ENCODING 217
SWIDTH 562 0
DWIDTH 9 0
BBX 8 13 1 1
BITMAP
30
3C
00
C3
C3
C3
C3
C3
C3
C3
C3
7E
3C
ENDCHAR
STARTCHAR 00DA
ENCODING 218
SWIDTH 562 0
DWIDTH 9 0
BBX 8 13 1 1
BITMAP
0C
3C
00
C3
C3
C3
C3
C3
C3
C3
C3
7E
3C
ENDCHAR
STARTCHAR 00DB
ENCODING 219
SWIDTH 562 0
DWIDTH 9 0
BBX 8 14 1 1
BITMAP
18
18
24
00
C3
C3
C3
C3
C3
C3
C3
C3
7E
3C
ENDCHAR
STARTCHAR 00DC
ENCODING 220
SWIDTH 562 0
DWIDTH 9 0
BBX 8 14 1 1
BITMAP
2C
2C
00
00
C3
C3
C3
C3
C3
C3
C3
C3
7E
3C
ENDCHAR
STARTCHAR 00DD
ENCODING 221
SWIDTH 562 0
DWIDTH 9 0
BBX 8 13 1 1
BITMAP
0C
38
00
C3
C3
C7
66
3C
38
18
18
18
18
ENDCHAR
STARTCHAR 00DE
ENCODING 222
SWIDTH 562 0
DWIDTH 9 0
BBX 8 12 1 1
BITMAP
C0
C0
FC
FE
C3
C3
C3
C3
FE
FC
C0
C0
ENDCHAR
STARTCHAR 00DF
ENCODING 223
SWIDTH 562 0
DWIDTH 9 0
BBX 7 14 1 1
BITMAP
20
78
DC
CC
CC
C8
D8
D8
DC
CC
C6
C2
FE
FC
ENDCHAR
STARTCHAR 00E0
ENCODING 224
SWIDTH 562 0
DWIDTH 9 0
BBX 8 13 1 1
BITMAP
70
30
38
00
7C
7C
03
7B
7F
C7
C7
7F
7B
ENDCHAR
STARTCHAR 00E1
ENCODING 225
SWIDTH 562 0
DWIDTH 9 0
BBX 8 13 1 1
BITMAP
0C
08
18
00
7C
7C
03
7B
7F
C7
C7
7F
7B
ENDCHAR
STARTCHAR 00E2
ENCODING 226
SWIDTH 562 0
DWIDTH 9 0
BBX 8 13 1 1
BITMAP
18
18
28
04
7C
7C
03
7B
7F
C7
C7
7F
7B
ENDCHAR
STARTCHAR 00E3
ENCODING 227
SWIDTH 562 0
DWIDTH 9 0
BBX 8 12 1 1
BITMAP
34
7C
00
7C
7C
03
7B
7F
C7
C7
7F
7B
ENDCHAR
STARTCHAR 00E4
ENCODING 228
SWIDTH 562 0
DWIDTH 9 0
BBX 8 12 0 1
BITMAP
36
36
00
3E
3E
01
3D
7F
E3
E3
7F
3D
ENDCHAR
STARTCHAR 00E5
ENCODING 229
SWIDTH 562 0
DWIDTH 9 0
BBX 8 13 1 1
BITMAP
10
00
28
28
7C
7C
03
7B
FF
C7
C7
FF
7B
ENDCHAR
STARTCHAR 00E6
ENCODING 230
SWIDTH 562 0
DWIDTH 9 0
BBX 8 9 1 1
BITMAP
FF
FF
1B
7F
FF
D8
D8
FE
76
ENDCHAR
STARTCHAR 00E7
ENCODING 231
SWIDTH 562 0
DWIDTH 9 0
BBX 8 11 1 1
BITMAP
3C
7E
C3
C3
C0
C3
C3
7E
3C
3C
30
ENDCHAR
STARTCHAR 00E8
ENCODING 232
SWIDTH 562 0
DWIDTH 9 0
BBX 8 13 1 1
BITMAP
30
30
38
00
3C
7E
C3
C3
FF
FE
C3
7E
3C
ENDCHAR
STARTCHAR 00E9
ENCODING 233
SWIDTH 562 0
DWIDTH 9 0
BBX 8 13 1 1
BITMAP
0C
0C
1C
00
3C
7E
C3
C3
FF
FE
C3
7E
3C
ENDCHAR
STARTCHAR 00EA
ENCODING 234
SWIDTH 562 0
DWIDTH 9 0
BBX 8 13 1 1
BITMAP
18
18
24
00
3C
7E
C3
C3
FF
FE
C3
7E
3C
ENDCHAR
STARTCHAR 00EB
ENCODING 235
SWIDTH 562 0
DWIDTH 9 0
BBX 9 12 0 1
BITMAP
3400
3400
0000
3C00
7E00
E380
C380
FF80
FE00
E380
7E00
3C00
ENDCHAR
STARTCHAR 00EC
ENCODING 236
SWIDTH 562 0
DWIDTH 9 0
BBX 5 12 2 1
BITMAP
C0
E0
30
00
F0
F0
30
30
30
30
18
08
ENDCHAR
STARTCHAR 00ED
ENCODING 237
SWIDTH 562 0
DWIDTH 9 0
BBX 5 12 2 1
BITMAP
18
30
60
00
F0
F0
30
30
30
30
18
08
ENDCHAR
STARTCHAR 00EE
ENCODING 238
SWIDTH 562 0
DWIDTH 9 0
BBX 5 12 2 1
BITMAP
60
F0
90
00
F0
F0
30
30
30
30
18
08
ENDCHAR
STARTCHAR 00EF
ENCODING 239
SWIDTH 562 0
DWIDTH 9 0
BBX 6 12 2 1
BITMAP
D8
D8
00
00
70
70
30
30
30
38
1C
0C
ENDCHAR
STARTCHAR 00F0
ENCODING 240
SWIDTH 562 0
DWIDTH 9 0
BBX 8 13 1 1
BITMAP
06
06
1F
1F
3E
7E
E6
C6
C6
C6
C6
7C
38
ENDCHAR
STARTCHAR 00F1
ENCODING 241
SWIDTH 562 0
DWIDTH 9 0
BBX 8 12 1 1
BITMAP
34
7C
00
FC
FE
C3
C3
C3
C3
C3
C3
C3
ENDCHAR
STARTCHAR 00F2
ENCODING 242
SWIDTH 562 0
DWIDTH 9 0
BBX 8 13 1 1
BITMAP
30
30
38
00
3C
7E
C3
C3
C3
C3
C3
7E
3C
ENDCHAR
STARTCHAR 00F3
ENCODING 243
SWIDTH 562 0
DWIDTH 9 0
BBX 8 13 1 1
BITMAP
0C
0C
1C
00
3C
7E
C3
C3
C3
C3
C3
7E
3C
ENDCHAR
STARTCHAR 00F4
ENCODING 244
SWIDTH 562 0
DWIDTH 9 0
BBX 8 13 1 1
BITMAP
18
18
24
00
3C
7E
C3
C3
C3
C3
C3
7E
3C
ENDCHAR
STARTCHAR 00F5
ENCODING 245
SWIDTH 562 0
DWIDTH 9 0
BBX 8 12 1 1
BITMAP
34
7C
00
3C
7E
C3
C3
C3
C3
C3
7E
3C
ENDCHAR
STARTCHAR 00F6
ENCODING 246
SWIDTH 562 0
DWIDTH 9 0
BBX 8 12 1 1
BITMAP
2C
2C
00
3C
7E
C7
C3
C3
C3
C3
7E
3C
ENDCHAR
STARTCHAR 00F8
ENCODING 248
SWIDTH 562 0
DWIDTH 9 0
BBX 8 9 1 1
BITMAP
7F
7F
C7
CF
DB
E3
E3
FE
FC
ENDCHAR
STARTCHAR 00F9
ENCODING 249
SWIDTH 562 0
DWIDTH 9 0
BBX 8 12 1 1
BITMAP
30
38
0C
00
C3
C3
C3
C3
C3
C3
7E
3C
ENDCHAR
STARTCHAR 00FA
ENCODING 250
SWIDTH 562 0
DWIDTH 9 0
BBX 8 12 1 1
BITMAP
0C
1C
30
00
C3
C3
C3
C3
C3
C3
7E
3C
ENDCHAR
STARTCHAR 00FB
ENCODING 251
SWIDTH 562 0
DWIDTH 9 0
BBX 8 12 1 1
BITMAP
18
3C
24
00
C3
C3
C3
C3
C3
C3
7E
3C
ENDCHAR
STARTCHAR 00FC
ENCODING 252
SWIDTH 562 0
DWIDTH 9 0
BBX 8 12 1 1
BITMAP
2C
2C
00
00
C3
C3
C3
C3
C3
C3
7E
3C
ENDCHAR
STARTCHAR 00FD
ENCODING 253
SWIDTH 562 0
DWIDTH 9 0
BBX 8 12 1 1
BITMAP
0C
1C
30
00
C3
C7
CF
7F
3B
03
3E
3C
ENDCHAR
STARTCHAR 00FE
ENCODING 254
SWIDTH 562 0
DWIDTH 9 0
BBX 8 11 1 1
BITMAP
C0
C0
FE
FE
C3
C3
C3
FE
FE
C0
C0
ENDCHAR
STARTCHAR 00FF
ENCODING 255
SWIDTH 562 0
DWIDTH 9 0
BBX 8 12 1 1
BITMAP
2C
2C
00
00
C7
CF
CF
7B
33
07
3E
3C
ENDCHAR
STARTCHAR 037E
ENCODING 894
SWIDTH 562 0
DWIDTH 9 0
BBX 3 9 2 1
BITMAP
60
00
00
00
00
00
60
60
80
ENDCHAR
STARTCHAR 2018
ENCODING 8216
SWIDTH 562 0
DWIDTH 9 0
BBX 2 6 5 7
BITMAP
40
40
C0
C0
C0
C0
ENDCHAR
STARTCHAR 2019
ENCODING 8217
SWIDTH 562 0
DWIDTH 9 0
BBX 3 5 2 8
BITMAP
E0
E0
E0
60
80
ENDCHAR
STARTCHAR 201C
ENCODING 8220
SWIDTH 562 0
DWIDTH 9 0
BBX 6 6 2 7
BITMAP
44
44
CC
CC
CC
CC
ENDCHAR
STARTCHAR 201D
ENCODING 8221
SWIDTH 562 0
DWIDTH 9 0
BBX 6 5 2 8
BITMAP
DC
DC
DC
CC
10
ENDCHAR
STARTCHAR 2022
ENCODING 8226
SWIDTH 562 0
DWIDTH 9 0
BBX 5 4 2 5
BITMAP
F8
F8
F8
70
ENDCHAR
STARTCHAR 2026
ENCODING 8230
SWIDTH 562 0
DWIDTH 9 0
BBX 8 2 1 1
BITMAP
DB
DB
ENDCHAR
STARTCHAR 2039
ENCODING 8249
SWIDTH 562 0
DWIDTH 9 0
BBX 3 8 2 1
BITMAP
20
60
40
80
80
40
60
20
ENDCHAR
STARTCHAR 203A
ENCODING 8250
SWIDTH 562 0
DWIDTH 9 0
BBX 3 8 2 1
BITMAP
80
C0
40
20
20
40
C0
80
ENDCHAR
STARTCHAR 2044
ENCODING 8260
SWIDTH 562 0
DWIDTH 9 0
BBX 8 12 1 1
BITMAP
03
03
03
06
0C
1C
38
30
60
C0
C0
C0
ENDCHAR
STARTCHAR 20A3
ENCODING 8355
SWIDTH 562 0
DWIDTH 9 0
BBX 8 12 1 1
BITMAP
7F
7F
60
60
60
7E
7E
60
60
F0
60
60
ENDCHAR
STARTCHAR 20A4
ENCODING 8356
SWIDTH 562 0
DWIDTH 9 0
BBX 8 14 1 1
BITMAP
1C
3E
77
63
60
FC
FC
60
FC
FC
60
40
FF
FF
ENDCHAR
STARTCHAR 20A7
ENCODING 8359
SWIDTH 562 0
DWIDTH 9 0
BBX 8 12 1 1
BITMAP
C0
E0
A0
A0
A0
A8
FF
CD
8C
8F
8D
8F
ENDCHAR
STARTCHAR 20AC
ENCODING 8364
SWIDTH 562 0
DWIDTH 9 0
BBX 8 14 1 1
BITMAP
1E
1E
31
60
60
F8
F8
F8
F8
60
60
31
1E
1E
ENDCHAR
STARTCHAR 2122
ENCODING 8482
SWIDTH 562 0
DWIDTH 9 0
BBX 9 5 0 7
BITMAP
FC80
2D80
2E80
2C80
2C80
ENDCHAR
STARTCHAR 2190
ENCODING 8592
SWIDTH 562 0
DWIDTH 9 0
BBX 8 8 1 2
BITMAP
18
30
40
FF
FF
20
30
18
ENDCHAR
STARTCHAR 2191
ENCODING 8593
SWIDTH 562 0
DWIDTH 9 0
BBX 8 9 1 2
BITMAP
10
10
38
38
2C
46
46
C3
C3
ENDCHAR
STARTCHAR 2192
ENCODING 8594
SWIDTH 562 0
DWIDTH 9 0
BBX 8 8 1 2
BITMAP
18
0C
06
FF
FF
04
08
18
ENDCHAR
STARTCHAR 2193
ENCODING 8595
SWIDTH 562 0
DWIDTH 9 0
BBX 8 8 1 2
BITMAP
C3
C3
46
2C
2C
38
10
10
ENDCHAR
STARTCHAR 2194
ENCODING 8596
SWIDTH 562 0
DWIDTH 9 0
BBX 8 8 1 1
BITMAP
08
08
FE
FF
FF
0C
08
08
ENDCHAR
STARTCHAR 2215
ENCODING 8725
SWIDTH 562 0
DWIDTH 9 0
BBX 8 12 1 1
BITMAP
03
03
03
06
0C
1C
38
30
60
C0
C0
C0
ENDCHAR
STARTCHAR 25B2
ENCODING 9650
SWIDTH 562 0
DWIDTH 9 0
BBX 8 9 1 2
BITMAP
18
38
38
3C
7E
7E
FF
FF
FF
ENDCHAR
STARTCHAR 25BA
ENCODING 9658
SWIDTH 562 0
DWIDTH 9 0
BBX 6 9 2 2
BITMAP
C0
E0
F0
F8
FC
F8
F0
F0
E0
ENDCHAR
STARTCHAR 25BC
ENCODING 9660
SWIDTH 562 0
DWIDTH 9 0
BBX 8 9 1 2
BITMAP
FF
FF
FF
7E
7E
3C
38
38
18
ENDCHAR
STARTCHAR 25C4
ENCODING 9668
SWIDTH 562 0
DWIDTH 9 0
BBX 6 9 2 2
BITMAP
0C
1C
7C
7C
FC
7C
7C
3C
1C
ENDCHAR
ENDFONT
